<?xml version="1.0" standalone="no"?>
<!DOCTYPE svg PUBLIC "-//W3C//DTD SVG 20010904//EN"
 "http://www.w3.org/TR/2001/REC-SVG-20010904/DTD/svg10.dtd">
<svg version="1.0" xmlns="http://www.w3.org/2000/svg"
 width="399.000000pt" height="399.000000pt" viewBox="0 0 399.000000 399.000000"
 preserveAspectRatio="xMidYMid meet">
<metadata>
Created by potrace 1.14, written by Peter Selinger 2001-2017
</metadata>
<g transform="translate(0.000000,399.000000) scale(0.100000,-0.100000)"
fill="#000000" stroke="none">
<path d="M1340 3474 c-111 -42 -166 -87 -216 -180 -35 -62 -36 -69 -32 -137 8
-123 56 -184 158 -204 21 -4 87 -30 99 -40 2 -1 6 -27 8 -57 3 -48 1 -55 -17
-61 -11 -4 -18 -10 -15 -15 5 -9 -44 -32 -78 -35 -12 -1 -28 -3 -35 -4 -10 -1
-10 -6 -2 -21 8 -15 8 -24 -2 -33 -28 -26 -201 -114 -242 -123 -31 -7 -151 -5
-183 2 -16 4 -54 18 -87 31 -74 31 -83 23 -62 -50 12 -43 26 -64 62 -95 49
-44 160 -102 193 -102 12 0 21 -4 21 -8 0 -5 -20 -44 -45 -88 -59 -102 -119
-257 -155 -397 -37 -144 -41 -169 -46 -305 -5 -121 6 -170 25 -119 6 16 11 37
11 47 0 11 9 42 20 70 11 27 16 50 12 50 -4 0 -2 4 4 8 6 4 19 22 28 40 16 31
106 127 154 164 24 19 57 25 47 8 -3 -5 -1 -10 5 -10 6 0 9 -4 6 -8 -3 -5 1
-19 7 -33 22 -42 12 -173 -18 -228 -45 -84 -156 -159 -192 -129 -15 12 -15 11
-2 -9 8 -13 17 -23 21 -23 5 0 8 -6 8 -14 0 -7 10 -20 23 -29 12 -8 36 -26 52
-41 31 -27 42 -30 108 -27 28 1 39 -3 43 -16 16 -52 65 -118 78 -106 3 4 6 1
6 -5 0 -6 20 -14 44 -17 33 -5 55 -2 91 14 53 23 51 24 89 -40 l15 -25 -51 -1
c-94 -3 -91 -42 8 -79 32 -13 76 -23 98 -23 36 -1 38 0 32 24 l-7 26 38 -23
c21 -13 63 -34 93 -48 73 -32 75 -34 53 -59 -20 -24 -23 -43 -9 -53 7 -4 4
-21 -8 -45 -10 -21 -20 -49 -22 -63 -8 -43 -13 -50 -35 -50 -23 0 -62 37 -53
51 3 5 0 9 -5 9 -6 0 -11 11 -11 25 0 14 -6 25 -12 26 -7 0 -29 3 -48 5 -60 7
-117 -5 -142 -31 -13 -14 -31 -25 -41 -25 -62 0 -92 -70 -84 -194 6 -81 5 -85
-16 -91 -39 -12 -107 -48 -107 -57 0 -5 -6 -6 -12 -2 -7 4 -10 4 -6 -1 4 -4
-1 -20 -11 -34 -10 -14 -30 -64 -44 -111 -24 -77 -31 -105 -42 -165 -2 -11 -7
-35 -11 -52 l-6 -33 1170 0 c972 0 1171 2 1175 13 3 8 11 58 18 113 11 81 17
103 36 120 27 25 35 52 34 104 -2 37 -39 130 -53 130 -4 0 -8 9 -8 20 0 10 -8
24 -17 29 -10 6 -15 11 -10 11 4 0 -2 18 -13 40 -16 31 -18 44 -9 58 16 25
-13 133 -52 196 -35 56 -32 60 45 71 62 8 156 62 156 90 0 6 -3 5 -8 -1 -30
-48 -233 -112 -257 -82 -14 19 -79 58 -96 58 -8 0 1 -8 19 -16 17 -9 32 -20
32 -25 0 -4 -47 -7 -105 -7 -84 1 -109 -2 -123 -15 -10 -9 -33 -20 -50 -23
-18 -4 -32 -12 -32 -18 0 -6 -11 -24 -25 -40 -14 -16 -25 -33 -25 -37 0 -7
-40 -5 -135 6 -145 18 -376 24 -412 12 -22 -8 -23 -6 -21 33 1 24 7 44 15 47
18 7 16 21 -4 25 -12 3 0 13 37 32 30 16 81 46 112 67 77 53 103 62 119 43 9
-12 9 -20 -2 -42 -7 -15 -15 -30 -17 -34 -2 -5 -1 -8 3 -8 3 0 10 11 15 25 8
21 16 25 50 25 31 0 47 -6 65 -26 19 -21 25 -23 25 -11 0 9 -9 22 -20 29 -28
18 -25 26 10 24 17 -1 30 1 30 5 0 4 10 9 21 12 18 5 21 11 16 37 -6 28 -5 30
20 25 15 -2 45 0 67 6 23 5 49 11 59 14 26 6 38 15 32 26 -4 5 1 12 9 15 9 3
13 10 11 15 -3 5 6 11 20 15 13 3 22 10 19 15 -3 5 1 9 9 9 15 0 27 29 27 69
0 21 3 23 33 16 63 -13 92 -15 121 -7 48 13 52 32 21 98 -19 39 -28 75 -28
104 1 41 35 196 47 207 2 3 14 -6 26 -20 22 -25 22 -25 83 -10 34 8 73 17 87
19 36 8 114 43 107 50 -3 3 -14 1 -25 -5 -11 -6 -22 -8 -25 -5 -10 10 5 34 20
34 24 0 63 48 56 67 -5 14 -8 13 -14 -5 -5 -12 -20 -24 -34 -28 -20 -5 -35 2
-79 40 -88 75 -145 174 -276 476 -62 143 -71 161 -80 155 -9 -6 -60 40 -60 55
0 5 31 41 69 80 46 46 81 95 106 145 37 72 56 157 38 168 -4 3 -39 -6 -77 -19
-109 -38 -200 -53 -296 -49 -93 3 -197 22 -206 37 -3 5 -12 4 -19 -2 -10 -8
-22 -4 -50 15 -21 14 -42 25 -47 25 -5 0 -8 5 -6 12 3 7 27 13 59 14 113 4
198 73 230 185 29 106 3 210 -70 283 l-40 39 -101 1 c-87 0 -106 -3 -143 -23
-24 -13 -51 -37 -61 -55 -44 -75 -53 -196 -22 -286 19 -55 20 -63 4 -54 -7 5
-3 -5 10 -20 29 -37 28 -48 -3 -36 -83 31 -496 28 -629 -6 -26 -6 -28 -5 -22
12 38 91 44 227 16 312 -21 62 -65 121 -106 141 -31 15 -119 24 -144 15z"/>
<path d="M950 1094 c0 -8 5 -12 10 -9 6 4 8 11 5 16 -9 14 -15 11 -15 -7z"/>
<path d="M2828 983 c7 -3 16 -2 19 1 4 3 -2 6 -13 5 -11 0 -14 -3 -6 -6z"/>
<path d="M2950 980 c8 -5 20 -10 25 -10 6 0 3 5 -5 10 -8 5 -19 10 -25 10 -5
0 -3 -5 5 -10z"/>
<path d="M2421 939 c-1 -28 2 -39 13 -39 27 0 29 63 2 73 -8 3 -13 -8 -15 -34z"/>
<path d="M2503 948 c8 -29 -22 -74 -57 -88 -16 -7 -17 -9 -4 -9 43 -2 99 95
66 115 -7 5 -9 -2 -5 -18z"/>
<path d="M2346 935 c6 -31 11 -41 18 -34 2 2 -2 18 -10 34 l-14 30 6 -30z"/>
<path d="M2719 943 c-13 -16 -12 -17 4 -4 9 7 17 15 17 17 0 8 -8 3 -21 -13z"/>
<path d="M2368 883 c6 -2 10 -8 7 -13 -3 -4 7 -10 22 -13 l27 -5 -25 19 c-13
10 -28 18 -34 18 -5 0 -4 -3 3 -6z"/>
</g>
</svg>
